<?xml version="1.0" encoding="UTF-8"?>
<!DOCTYPE svg PUBLIC "-//W3C//DTD SVG 1.0//EN" "http://www.w3.org/TR/2001/REC-SVG-20010904/DTD/svg10.dtd">
<!-- Creator: CorelDRAW 2020 (64 Bit) -->
<svg xmlns="http://www.w3.org/2000/svg" xml:space="preserve" width="180mm" height="60mm" version="1.0" style="shape-rendering:geometricPrecision; text-rendering:geometricPrecision; image-rendering:optimizeQuality; fill-rule:evenodd; clip-rule:evenodd"
viewBox="0 0 18000 6000"
 xmlns:xlink="http://www.w3.org/1999/xlink"
 xmlns:xodm="http://www.corel.com/coreldraw/odm/2003">
 <defs>
  <style type="text/css">
   <![CDATA[
    .fil0 {fill:none}
    .fil1 {fill:#FEFEFE}
    .fil3 {fill:#ED3237}
    .fil2 {fill:#0D62AD}
   ]]>
  </style>
 </defs>
 <g id="Camada_x0020_1">
  <metadata id="CorelCorpID_0Corel-Layer"/>
  <rect class="fil0" x="-0" y="-0" width="18000" height="6000"/>
  <path class="fil1" d="M1572.99 483.89l14854.01 0c315.15,0 573,257.85 573,573l0 3886.22c0,315.15 -257.85,572.99 -573,572.99l-14854.01 0c-315.15,0 -572.99,-257.84 -572.99,-572.99l0 -3886.22c0,-315.15 257.84,-573 572.99,-573z"/>
  <path class="fil2" d="M5245.74 611.63l11181.26 0c244.87,0 445.27,200.47 445.27,445.28l0 3886.2c0,244.81 -200.51,445.32 -445.27,445.32l-11181.26 0 0 -4776.8z"/>
  <path class="fil3" d="M1572.99 611.63l3672.75 0 0 4776.8 -3672.75 0c-244.78,0 -445.28,-200.38 -445.28,-445.32l0 -3886.2c0,-244.92 200.36,-445.28 445.28,-445.28z"/>
  <g id="_2131733358192">
   <polygon class="fil1" points="1629.23,4184.55 2301.6,4184.55 2301.6,3353.24 3172.63,3353.24 3172.63,2833.69 2301.6,2833.69 2301.6,2561.67 3316.27,2561.67 3316.27,2002.37 1629.23,2002.37 "/>
   <path class="fil1" d="M3894.02 3405.2l210.89 -672.36 6.1 0 195.6 672.36 -412.59 0zm-919.95 779.35l0 0 675.44 0 97.8 -311.74 693.77 0 91.71 311.74 696.82 0 -794.63 -2182.18 -657.1 0 -803.81 2182.18z"/>
   <polygon class="fil1" points="5271.43,4184.55 5907.14,4184.55 6174.04,2784.78 6180.15,2784.78 6292.22,4184.55 6793.47,4184.55 7439.33,2784.78 7445.45,2784.78 7178.55,4184.55 7814.24,4184.55 8230.31,2002.37 7273.71,2002.37 6717.23,3286.01 6711.11,3286.01 6644.11,2002.37 5687.49,2002.37 "/>
   <polygon class="fil1" points="7956.59,4184.55 9796.46,4184.55 9903.1,3625.25 8735.6,3625.25 8787.45,3353.24 9817.41,3353.24 9916.48,2833.69 8886.52,2833.69 8938.39,2561.67 10072.27,2561.67 10178.93,2002.37 8372.67,2002.37 "/>
   <polygon class="fil1" points="10494.69,4184.55 11167.07,4184.55 11476.52,2561.67 12087.78,2561.67 12194.43,2002.37 10299.52,2002.37 10192.87,2561.67 10804.13,2561.67 "/>
   <path class="fil1" d="M11883.92 4184.55l672.36 0 145.13 -761.02 357.59 0c265.87,0 242.86,217.01 221.57,424.83 -12.4,113.09 -21.74,226.18 -9.1,336.19l672.36 0c-41.86,-100.85 4.59,-360.64 15.84,-467.62 27.38,-271.99 -47.21,-473.71 -217.2,-544.01 238.85,-82.51 388.22,-320.9 431.34,-547.05 78.69,-412.61 -211.19,-623.5 -593.22,-623.5l-1280.58 0 -416.09 2182.18zm989.38 -1662.6l0 0 314.81 0c256.73,0 317.97,79.46 291.76,216.99 -37.31,195.6 -212.52,217 -337.83,217l-351.48 0 82.74 -433.99z"/>
   <path class="fil1" d="M14141.66 3093.46c-127.06,666.26 225.2,1143.06 888.42,1143.06 663.22,0 1197.27,-476.8 1324.33,-1143.06 127.03,-666.26 -225.2,-1143.03 -888.42,-1143.03 -663.22,0 -1197.3,476.77 -1324.33,1143.03zm672.39 0l0 0c92.66,-485.95 377.05,-599.02 548.2,-599.02 171.14,0 412.45,113.07 319.79,599.02 -92.66,485.95 -377.08,599.04 -548.23,599.04 -171.14,0 -412.42,-113.09 -319.76,-599.04z"/>
   <path class="fil1" d="M3363.75 3048.07c2633.39,-2035.11 7305.29,-2392.13 10476.57,-1440.66 -3869.17,-693.02 -8036.58,-224.65 -10476.57,1440.66z"/>
   <path class="fil1" d="M14029.12 1513.18c84.97,0 153.85,68.88 153.85,153.88 0,84.97 -68.88,153.91 -153.85,153.91 -85.01,0 -153.88,-68.94 -153.88,-153.91 0,-85 68.87,-153.88 153.88,-153.88z"/>
   <path class="fil3" d="M3408.02 3018.06c438.57,-235.88 759.11,-399.56 1184.97,-583.06l-20.53 -56.24c-410.26,182 -827.63,424.15 -1164.44,639.3z"/>
  </g>
 </g>
</svg>
