<svg xmlns="http://www.w3.org/2000/svg" xmlns:xlink="http://www.w3.org/1999/xlink" width="500" zoomAndPan="magnify" viewBox="0 0 375 374.999991" height="500" preserveAspectRatio="xMidYMid meet" version="1.0"><defs><g/><clipPath id="3ec021df0d"><path d="M 126.53125 193.972656 L 159.148438 193.972656 L 159.148438 213.914062 L 126.53125 213.914062 Z M 126.53125 193.972656 " clip-rule="nonzero"/></clipPath></defs><g fill="#d1e8e2" fill-opacity="1"><g transform="translate(112.741643, 263.105648)"><g><path d="M 113.8125 -97.003906 C 104.007812 -107.390625 90.230469 -113.929688 74.355469 -113.929688 C 62.101562 -113.929688 50.777344 -109.257812 41.789062 -101.554688 L 41.789062 -136.921875 C 41.789062 -140.777344 40.15625 -144.277344 37.703125 -146.730469 C 35.253906 -149.179688 31.75 -150.699219 28.015625 -150.699219 C 24.164062 -150.699219 20.660156 -149.179688 18.210938 -146.730469 C 15.757812 -144.277344 14.242188 -140.777344 14.242188 -136.921875 L 14.242188 -6.1875 C 14.242188 -1.167969 16.691406 1.285156 21.710938 1.285156 C 27.429688 1.285156 31.984375 -2.566406 33.851562 -12.257812 L 35.253906 -16.574219 C 35.484375 -16.226562 35.835938 -15.992188 36.070312 -15.640625 C 45.289062 -5.253906 58.480469 1.285156 74.355469 1.285156 C 90.230469 1.285156 104.007812 -5.253906 113.8125 -15.640625 C 123.617188 -26.03125 129.570312 -40.503906 129.570312 -56.378906 C 129.570312 -72.253906 123.617188 -86.613281 113.8125 -97.003906 Z M 93.148438 -34.433594 C 87.78125 -28.832031 80.308594 -25.332031 71.90625 -25.332031 C 63.5 -25.332031 56.03125 -28.832031 50.542969 -34.433594 C 45.058594 -40.039062 41.789062 -47.859375 41.789062 -56.378906 C 41.789062 -64.785156 45.058594 -72.605469 50.542969 -78.207031 C 56.03125 -83.8125 63.5 -87.3125 71.90625 -87.3125 C 80.308594 -87.3125 87.78125 -83.8125 93.148438 -78.207031 C 98.519531 -72.605469 101.789062 -64.785156 101.789062 -56.378906 C 101.789062 -47.859375 98.519531 -40.039062 93.148438 -34.433594 Z M 93.148438 -34.433594 "/></g></g></g><g fill="#d1e8e2" fill-opacity="1"><g transform="translate(225.8443, 140.08251)"><g><path d="M 5.890625 -12.4375 C 5.890625 -8.507812 7.308594 -5.238281 9.820312 -2.835938 C 12.328125 -0.4375 15.710938 1.089844 19.636719 1.089844 C 23.453125 1.089844 26.835938 -0.4375 29.457031 -2.835938 C 31.964844 -5.238281 33.492188 -8.507812 33.492188 -12.4375 C 33.492188 -16.253906 31.964844 -19.746094 29.457031 -22.144531 C 26.835938 -24.546875 23.453125 -25.964844 19.636719 -25.964844 C 15.710938 -25.964844 12.328125 -24.546875 9.820312 -22.144531 C 7.308594 -19.746094 5.890625 -16.253906 5.890625 -12.4375 Z M 5.890625 -12.4375 "/></g></g></g><g clip-path="url(#3ec021df0d)"><path fill="#19747e" d="M 126.53125 193.972656 L 159.167969 193.972656 L 159.167969 213.914062 L 126.53125 213.914062 Z M 126.53125 193.972656 " fill-opacity="1" fill-rule="nonzero"/></g><g fill="#d1e8e2" fill-opacity="1"><g transform="translate(126.863666, 208.253995)"><g><path d="M 4.328125 -7.796875 L 4.328125 -0.53125 C 4.117188 -0.34375 3.832031 -0.1875 3.46875 -0.0625 C 3.101562 0.0625 2.660156 0.125 2.140625 0.125 C 1.628906 0.125 1.195312 0.0078125 0.84375 -0.21875 C 0.425781 -0.46875 0.21875 -0.816406 0.21875 -1.265625 L 0.21875 -8.546875 C 0.4375 -8.734375 0.722656 -8.890625 1.078125 -9.015625 C 1.441406 -9.140625 1.878906 -9.203125 2.390625 -9.203125 C 2.910156 -9.203125 3.359375 -9.085938 3.734375 -8.859375 C 4.128906 -8.597656 4.328125 -8.242188 4.328125 -7.796875 Z M 4.328125 -7.796875 "/></g></g></g><g fill="#d1e8e2" fill-opacity="1"><g transform="translate(133.736039, 208.253995)"><g><path d="M 1.921875 -5.578125 C 1.753906 -5.710938 1.609375 -5.914062 1.484375 -6.1875 C 1.367188 -6.46875 1.3125 -6.757812 1.3125 -7.0625 C 1.3125 -7.71875 1.546875 -8.25 2.015625 -8.65625 C 2.484375 -9.0625 3.15625 -9.265625 4.03125 -9.265625 C 4.789062 -9.265625 5.390625 -9.039062 5.828125 -8.59375 C 6.210938 -8.195312 6.40625 -7.710938 6.40625 -7.140625 C 6.40625 -6.753906 6.257812 -6.519531 5.96875 -6.4375 L 4.59375 -6.0625 C 3.457031 -5.738281 2.890625 -5.101562 2.890625 -4.15625 C 2.890625 -3.644531 3.066406 -3.21875 3.421875 -2.875 C 3.742188 -2.5625 4.128906 -2.40625 4.578125 -2.40625 C 4.742188 -2.40625 4.890625 -2.4375 5.015625 -2.5 C 5.140625 -2.5625 5.203125 -2.65625 5.203125 -2.78125 C 5.203125 -2.84375 5.179688 -2.890625 5.140625 -2.921875 C 5.097656 -2.960938 5.039062 -2.984375 4.96875 -2.984375 C 4.800781 -2.984375 4.671875 -2.894531 4.578125 -2.71875 C 4.191406 -2.738281 3.875 -2.882812 3.625 -3.15625 C 3.382812 -3.4375 3.265625 -3.765625 3.265625 -4.140625 C 3.265625 -4.523438 3.378906 -4.851562 3.609375 -5.125 C 3.847656 -5.40625 4.21875 -5.617188 4.71875 -5.765625 L 6.09375 -6.15625 C 6.507812 -6.28125 6.71875 -6.5625 6.71875 -7 C 6.988281 -7.09375 7.242188 -7.140625 7.484375 -7.140625 C 7.910156 -7.140625 8.269531 -6.992188 8.5625 -6.703125 C 8.863281 -6.390625 9.015625 -6.003906 9.015625 -5.546875 C 9.015625 -5.097656 8.882812 -4.742188 8.625 -4.484375 C 8.375 -4.222656 8.078125 -4.039062 7.734375 -3.9375 L 7.625 -3.890625 L 7.625 -3.859375 C 7.625 -3.734375 7.695312 -3.671875 7.84375 -3.671875 C 7.894531 -3.671875 7.957031 -3.691406 8.03125 -3.734375 C 8.238281 -3.492188 8.34375 -3.175781 8.34375 -2.78125 C 8.34375 -2.394531 8.253906 -2.015625 8.078125 -1.640625 C 7.910156 -1.273438 7.664062 -0.953125 7.34375 -0.671875 C 6.601562 -0.046875 5.609375 0.265625 4.359375 0.265625 C 3.109375 0.265625 2.09375 -0.03125 1.3125 -0.625 C 0.507812 -1.21875 0.109375 -2.003906 0.109375 -2.984375 C 0.109375 -4.296875 0.710938 -5.160156 1.921875 -5.578125 Z M 1.921875 -5.578125 "/></g></g></g><g fill="#d1e8e2" fill-opacity="1"><g transform="translate(145.126737, 208.253995)"><g><path d="M 3.75 -6.140625 C 3.75 -6.054688 3.8125 -5.992188 3.9375 -5.953125 C 4.070312 -5.921875 4.238281 -5.882812 4.4375 -5.84375 C 4.519531 -5.925781 4.5625 -6.015625 4.5625 -6.109375 C 4.5625 -6.203125 4.523438 -6.273438 4.453125 -6.328125 C 4.378906 -6.378906 4.28125 -6.40625 4.15625 -6.40625 C 3.882812 -6.40625 3.75 -6.316406 3.75 -6.140625 Z M 4.015625 -3.390625 C 3.910156 -3.296875 3.859375 -3.207031 3.859375 -3.125 C 3.859375 -3.039062 3.894531 -2.972656 3.96875 -2.921875 C 4.039062 -2.867188 4.140625 -2.84375 4.265625 -2.84375 C 4.523438 -2.84375 4.65625 -2.929688 4.65625 -3.109375 C 4.65625 -3.210938 4.441406 -3.304688 4.015625 -3.390625 Z M 1.796875 -4.125 C 1.929688 -4.125 2 -4.203125 2 -4.359375 C 1.582031 -4.515625 1.242188 -4.722656 0.984375 -4.984375 C 0.597656 -5.347656 0.40625 -5.804688 0.40625 -6.359375 C 0.40625 -7.210938 0.738281 -7.914062 1.40625 -8.46875 C 2.082031 -9.03125 2.96875 -9.3125 4.0625 -9.3125 C 5.164062 -9.3125 6.078125 -9.039062 6.796875 -8.5 C 7.515625 -7.96875 7.875 -7.285156 7.875 -6.453125 C 7.875 -6.210938 7.832031 -5.984375 7.75 -5.765625 C 7.675781 -5.554688 7.570312 -5.398438 7.4375 -5.296875 C 7.382812 -5.328125 7.332031 -5.363281 7.28125 -5.40625 C 6.96875 -5.59375 6.726562 -5.6875 6.5625 -5.6875 C 6.414062 -5.6875 6.34375 -5.609375 6.34375 -5.453125 C 6.957031 -5.242188 7.425781 -4.953125 7.75 -4.578125 C 8.09375 -4.160156 8.265625 -3.625 8.265625 -2.96875 C 8.265625 -2.007812 7.875 -1.242188 7.09375 -0.671875 C 6.34375 -0.140625 5.378906 0.125 4.203125 0.125 C 3.023438 0.125 2.0625 -0.15625 1.3125 -0.71875 C 0.539062 -1.28125 0.15625 -2.050781 0.15625 -3.03125 C 0.15625 -3.4375 0.210938 -3.769531 0.328125 -4.03125 C 0.453125 -4.300781 0.601562 -4.507812 0.78125 -4.65625 C 0.875 -4.539062 1.035156 -4.421875 1.265625 -4.296875 C 1.492188 -4.179688 1.671875 -4.125 1.796875 -4.125 Z M 1.796875 -4.125 "/></g></g></g></svg>